<svg width="1320" height="1095" viewBox="0 0 1320 1095" fill="none" xmlns="http://www.w3.org/2000/svg">
<path d="M415.78 787.954V539L421.269 476.313C423.819 447.183 438.751 420.551 462.272 403.179C487.238 384.74 519.243 378.674 549.224 386.7L591.23 397.944C597.587 399.645 603.804 401.835 609.824 404.493L639.482 417.585C650.624 422.503 661.006 428.986 670.316 436.838L736.697 492.826C748.976 503.183 759.196 515.758 766.823 529.895L863.347 708.809C870.903 722.814 875.781 738.104 877.731 753.897L892.142 870.588C894.213 887.363 892.942 904.383 888.401 920.664L883.497 938.245C877.776 958.757 867.028 977.518 852.226 992.828L809.274 1037.25C785.89 1061.44 753.924 1075.45 720.291 1076.25L332.225 1085.47C308.4 1086.03 288.78 1066.87 288.78 1043.04C288.78 1033.31 292.125 1023.87 298.254 1016.32L306.263 1006.44C314.351 996.462 325.677 989.632 338.274 987.133C362.507 982.327 380.559 961.948 382.406 937.313L385.343 898.158C386.293 885.488 389.5 873.09 394.813 861.548L404.053 841.476C411.779 824.691 415.78 806.432 415.78 787.954Z" fill="#BF8256" stroke="#45413C" stroke-width="19"/>
<circle cx="320.78" cy="254" r="98.5" fill="#DEA47A" stroke="#45413C" stroke-width="13"/>
<ellipse cx="312.28" cy="276.5" rx="67.5" ry="65.5" fill="#BF8256"/>
<circle cx="791.78" cy="228" r="98" fill="#DEA47A"/>
<circle cx="791.78" cy="228" r="98" stroke="black" stroke-width="14"/>
<circle cx="791.78" cy="228" r="98" stroke="#45413C" stroke-width="14"/>
<circle cx="791.28" cy="248.5" r="65.5" fill="#BF8256"/>
<circle cx="537.78" cy="242" r="242" fill="#DEA47A"/>
<path d="M697.196 469.392C716.549 481.926 760.511 507.303 730.709 523.706C688.963 546.683 511.461 581.301 472.227 584.558C404.985 590.141 424.374 542.084 424.374 481.926C424.374 421.768 477.717 373 543.519 373C602.476 373 636.307 408.811 669.347 446.831C678.062 456.858 697.196 463.133 697.196 469.392Z" fill="#915E3A"/>
<circle cx="537.78" cy="242" r="234" stroke="#45413C" stroke-width="16"/>
<circle cx="543.78" cy="266" r="218" fill="#BF8256"/>
<mask id="mask0_5_53" style="mask-type:alpha" maskUnits="userSpaceOnUse" x="295" y="0" width="485" height="484">
<circle cx="537.78" cy="242" r="232.5" fill="#DEA47A" stroke="#45413C" stroke-width="19"/>
</mask>
<g mask="url(#mask0_5_53)">
<circle cx="537.78" cy="398" r="152.5" fill="#FFDCD1" stroke="#45413C" stroke-width="19"/>
<circle cx="537.78" cy="398" r="152.5" fill="#FFDCD1" stroke="#45413C" stroke-width="19"/>
</g>
<ellipse cx="470.28" cy="199.5" rx="96.5" ry="98.5" fill="#FFDCD1"/>
<path d="M441.28 288C387.984 288 377.78 253.9 377.78 199.5C377.78 145.1 420.984 101 474.28 101" stroke="#45413C" stroke-width="14"/>
<ellipse cx="605.28" cy="199.5" rx="96.5" ry="98.5" fill="#FFDCD1"/>
<path d="M633.28 287C684.78 275.5 706.28 253.9 706.28 199.5C706.28 145.1 663.075 101 609.78 101" stroke="#45413C" stroke-width="14"/>
<circle cx="467.28" cy="199.5" r="33.5" fill="#45413C"/>
<circle cx="634.28" cy="199.5" r="33.5" fill="#45413C"/>
<path d="M473.78 101L482.516 101.397C497.932 102.098 512.292 109.432 521.897 121.511L522.32 122.043C531.074 133.052 547.928 132.63 556.121 121.198L556.678 120.421C559.724 116.171 563.465 112.464 567.744 109.458C575.577 103.954 584.917 101 594.49 101H610.28" stroke="#45413C" stroke-width="14"/>
<path d="M635.78 366C635.78 394.473 595.498 409 556.78 409C518.061 409 480.78 394.473 480.78 366" stroke="#45413C" stroke-width="34" stroke-linecap="round"/>
<path d="M653.465 947.365L656.791 970.348C657.449 974.898 657.78 979.489 657.78 984.086C657.78 1037.06 614.838 1080 561.866 1080H506.28L316.595 1075.21C302.951 1074.87 291.658 1064.5 290.154 1050.93C289.281 1043.06 291.869 1035.2 297.246 1029.39L315.389 1009.77C323.672 1000.82 335.048 995.347 347.214 994.464L354.323 993.949C363.218 993.303 371.434 988.96 376.977 981.974C379.489 978.808 381.376 975.193 382.537 971.321L393.547 934.601C396.817 923.695 401.527 913.273 407.554 903.613L416.641 889.047C422.021 880.422 428.935 872.854 437.041 866.719C448.028 858.402 460.908 852.94 474.525 850.824L486.545 848.956C501.256 846.669 516.252 846.967 530.86 849.834L556.252 854.819C571.802 857.872 586.65 863.785 600.041 872.259L608.068 877.338C614.521 881.422 620.484 886.233 625.84 891.677C640.743 906.824 650.421 926.334 653.465 947.365Z" fill="#BF8256" stroke="#45413C" stroke-width="14" stroke-linecap="round"/>
<path d="M211.875 761.15C216.203 737.368 239 721.607 262.777 725.957L439.94 758.373C463.279 762.643 484.78 744.719 484.78 720.994L484.78 675.555C484.78 656.88 498.349 640.974 516.79 638.03L526.428 636.491C545.522 633.443 563.86 645.218 569.033 663.849L600.894 778.589C601.814 781.899 602.28 785.32 602.28 788.756L602.28 816.465C602.28 822.814 600.689 829.061 597.653 834.637L595.635 838.344C588.015 852.338 572.473 860.092 556.709 857.764L248.515 812.247C224.054 808.634 207.449 785.477 211.875 761.15Z" fill="#BF8256"/>
<path d="M474.28 757.5L264.28 719.967L261.699 719.787C242.747 718.462 224.671 727.949 214.997 744.3L214.234 745.59C206.99 757.832 205.673 772.694 210.65 786.019C216.598 801.946 230.675 813.426 247.473 816.05L427.28 844.132L529.786 857.036C550.242 859.611 570.985 855.561 588.97 845.482L597.397 840.759C607.135 835.302 615.207 827.299 620.747 817.608C629.655 802.026 631.319 783.332 625.304 766.421L608.78 719.967L578.78 645" stroke="#45413C" stroke-width="19" stroke-linecap="round"/>
<path d="M993.813 901.178L913.107 940.215C909.439 941.989 905.475 943.071 901.414 943.407C890.388 944.317 880.546 950.674 875.181 960.349L869.548 970.509C866.847 975.38 863.42 979.811 859.385 983.65L799.546 1040.57C794.431 1045.44 794.294 1053.55 799.242 1058.58C802.277 1061.67 806.68 1062.99 810.912 1062.08L967.835 1028.31C985.642 1024.48 1002.56 1017.31 1017.69 1007.17L1101.92 950.735C1111.68 944.202 1120.59 936.501 1128.47 927.804L1208.24 839.796C1219.34 827.541 1228.26 813.464 1234.58 798.184L1270.17 712.249C1277.22 695.201 1280.94 676.956 1281.11 658.506L1281.74 591.825C1281.88 577.017 1279.73 562.275 1275.37 548.121L1259.47 496.441C1254.45 480.136 1246.58 464.852 1236.21 451.303L1200.48 404.594C1193.13 394.99 1184.6 386.35 1175.1 378.877L1157.51 365.053C1142.68 353.395 1125.7 344.765 1107.54 339.653L1064.79 327.618C1052.3 324.1 1039.38 322.287 1026.4 322.23L1003.61 322.13C980.985 322.031 958.652 327.265 938.425 337.409L907.704 352.816L859.378 386.251C846.088 395.446 836.45 409.018 832.147 424.595L829.721 433.377C825.272 449.482 828.932 466.745 839.533 479.659C848.194 490.211 860.698 496.882 874.286 498.201L874.856 498.256C891.243 499.846 907.433 493.696 918.631 481.626L925.3 474.438C927.855 471.684 930.193 468.735 932.292 465.618L936.506 459.361C952.491 435.625 978.396 420.438 1006.92 418.083C1022.55 416.792 1038.26 419.423 1052.62 425.739L1073.89 435.097C1096.45 445.019 1115.94 460.8 1130.34 480.8C1135.54 488.033 1140.04 495.753 1143.75 503.853L1158.18 535.272C1169.63 560.225 1173.71 587.933 1169.94 615.128L1163.35 662.661C1162.4 669.47 1160.97 676.202 1159.07 682.807L1145.6 729.477C1141.56 743.468 1135.42 756.766 1127.4 768.916L1094.68 818.452C1085.53 832.303 1074.05 844.467 1060.76 854.408L1017.34 886.87C1009.98 892.38 1002.1 897.171 993.813 901.178Z" fill="#C6895E" stroke="#45413C" stroke-width="19" stroke-linecap="round"/>
<path d="M887.068 961.704C890.462 957.664 895.006 954.752 900.094 953.355L915.651 949.084C917.068 948.695 918.449 948.187 919.78 947.565L945.053 935.75L995.826 911L1046.28 877.5L1093.59 836.405C1095.02 835.164 1096.78 834.378 1098.66 834.149C1108.23 832.986 1113.24 845.162 1105.63 851.067L987.78 942.5L853.591 1021.02C847.165 1024.78 840.132 1017.16 844.393 1011.05C844.651 1010.69 844.943 1010.34 845.267 1010.03L870.166 986.02C871.901 984.348 873.394 982.443 874.603 980.36L880.651 969.945C881.402 968.651 882.264 967.424 883.227 966.278L887.068 961.704Z" fill="#DEA47A"/>
<path d="M965.563 336.109C972.006 334.048 978.717 332.945 985.48 332.835L1028.91 332.135C1034.47 332.045 1040.02 332.628 1045.44 333.869L1116.78 350.219C1127.62 352.703 1137.7 357.77 1146.16 364.988L1170.78 386L1226.37 448.84C1227.63 450.265 1228.58 451.934 1229.17 453.744C1233.41 466.896 1217.84 477.433 1207.21 468.598L1134.23 407.926C1124.67 399.98 1112.31 396.227 1099.95 397.516L1018.58 406L990.646 409.894C973.979 412.218 958.736 420.552 947.784 433.328L913.405 473.438C911.659 475.475 909.726 477.344 907.631 479.02C903.11 482.636 897.905 485.3 892.328 486.852L885.074 488.871C872.628 492.334 859.283 488.758 850.237 479.535C847.616 476.862 845.434 473.791 843.773 470.436L842.349 467.561C829.997 442.613 837.995 412.374 861.067 396.796L929.6 350.523C935.026 346.86 940.946 343.987 947.181 341.992L965.563 336.109Z" fill="#DEA47A"/>
<path d="M14.5362 867.743L11.7899 874.993C7.43518 886.49 9.3737 899.424 16.9075 909.138C21.379 914.904 27.5269 919.143 34.5058 921.272L38.3487 922.445C48.0522 925.405 58.4445 925.212 68.0314 921.894L81.6366 917.184C88.7058 914.737 95.4508 911.439 101.723 907.362L120.036 895.459C134.741 885.9 147.577 873.735 157.911 859.564L177.28 833L189.76 814.449C205.743 790.69 214.28 762.706 214.28 734.071V730.708C214.28 717.63 212.498 704.614 208.984 692.017L187.78 616L179.396 588.454C177.992 583.84 175.962 579.44 173.365 575.376L167.308 565.903C161.372 556.618 151.112 551 140.092 551C129.834 551 120.186 555.872 114.096 564.126L110.155 569.469C104.39 577.284 101.28 586.739 101.28 596.451V631.5V693.602C101.28 716.216 95.9537 738.512 85.7329 758.685L69.9997 789.737C65.5316 798.556 60.1673 806.891 53.9917 814.61L22.1182 854.452C18.9124 858.459 16.354 862.944 14.5362 867.743Z" fill="#FFF30D" stroke="#45413C" stroke-width="19" stroke-linecap="round"/>
<path d="M891.208 459.724L887.105 457.353C880.598 453.593 872.603 453.488 866 457.077C862.081 459.206 858.918 462.498 856.946 466.498L855.86 468.701C853.118 474.264 852.211 480.553 853.268 486.664L854.769 495.336C855.549 499.842 856.875 504.236 858.716 508.422L861.797 515.424C867.634 528.688 875.844 540.774 886.024 551.087L896.136 561.332L905.065 569.718C918.498 582.334 935.388 590.66 953.577 593.63C961.884 594.986 970.337 595.205 978.703 594.279L1026.02 589.045L1043.47 586.701C1046.39 586.308 1049.24 585.517 1051.95 584.35L1058.26 581.629C1064.45 578.962 1068.85 573.326 1069.93 566.677C1070.95 560.489 1068.96 554.188 1064.58 549.701L1061.74 546.797C1057.59 542.549 1052.2 539.741 1046.34 538.784L1025.19 535.331L1000.92 531.368C978.602 527.724 957.455 518.874 939.194 505.536L937.473 504.279C929.49 498.448 922.128 491.811 915.505 484.472L898.48 465.608C896.378 463.279 893.924 461.293 891.208 459.724Z" fill="#FFF30D" stroke="#45413C" stroke-width="19" stroke-linecap="round"/>
</svg>
