<?xml version="1.0" encoding="UTF-8"?><svg id="_Слой_1" xmlns="http://www.w3.org/2000/svg" viewBox="0 0 632.55 154.33"><defs><style>.cls-1{fill:#71a23b;}.cls-2{fill:#385619;}.cls-3{fill:#ecf49c;}.cls-4,.cls-5{fill:#b3d95f;}.cls-6{fill:#a3cf58;}.cls-6,.cls-5,.cls-7,.cls-8{stroke:#000;stroke-miterlimit:10;stroke-width:.5px;}.cls-9{fill:#386926;}.cls-10{fill:#e0ee7d;}.cls-7{fill:#abd25e;}.cls-8{fill:#eff3dd;}</style></defs><ellipse class="cls-9" cx="107.1" cy="80.98" rx="58.67" ry="53.33"/><path class="cls-7" d="M154.23,54.23c-.18-.35-.43-.68-.72-.95-1.68-2.32-4.05-5.13-7.32-7.83-2.07-1.72-4.08-3.05-5.87-4.09-1.36-1.21-3.26-2.72-5.72-4.18-.62-.37-2.32-1.35-4.67-2.33-1.62-.68-4.23-1.65-7.57-2.31-1.55-.31-2.86-.47-3.82-.57-.07-.03-.16-.06-.26-.09-.09-.02-.18-.03-.27-.04-2.15-.44-4.4-.86-6.74-1.23-2.23-.36-4.4-.66-6.49-.9-3.25-.02-5.79.38-7.51.74-3.5.75-11.93,3.14-12.2,3.2-.46.11-.38.07-.5.12-1.75.74-9.75,4.98-10.95,5.62-.08.04-.13.09-.23.16-.64.45-2.66,1.86-5.12,3.8-2.31,1.81-4.27,3.51-5.77,4.85-.08.08-.23.19-.36.39-1.72,2.7-3.44,5.41-5.17,8.12-.12.16-.24.35-.36.58-.13.23-.22.45-.28.64-.89,1.37-1.94,3.3-2.73,5.76-.83,2.58-1.09,4.86-1.16,6.53-.04.13-.08.29-.11.48-.03.16-.04.33-.04.49-.34,1.51-.63,3.37-.69,5.5-.08,2.83.28,5.25.69,7.08,0,.07,0,.16.02.25.01.08.03.17.06.25.17.34,4.87,14.76,5.33,15.71.02.04.04.06.06.09.46.72,6.55,10.13,7.06,10.92.03.04.04.08.07.12.56.85,8.08,7.74,8.26,8.11.09.09.19.17.31.24.21.1,11.3,6.62,12.92,7.51.12.07.24.11.37.15,2.68.81,19.84,9.28,17.41,2.61l-3.73-4.8c-.2-.27-.37-.56-.48-.88l-3.47-9.66c-.13-.35-.19-.72-.19-1.09v-8.45c0-.09.13-.48.36-1.08.93-2.49,3.37-8.41,3.37-8.41-.15-.07,5.04-5.87,5.14-6.05,1.56-1.72-.7-2.89-2.13-3.51-.19-.08-.35-.19-.49-.33,0,0-.02-.02-.04-.04-.06-.06-.96-1.13-.62-1.95.27-.67,1.34-1.11,2.43-.7.18.17.38.34.63.5.84.56,1.69.74,2.25.8.25.06.44.11.55.13,3.25.72,4.69-.26,8.15.51.07.02.16.04.36.09,2.71.65,4.5,1.28,6.07,1.8,3.52,1.16,5.28,1.75,6.44,1.72.66-.02,2.38-.08,4.22-1.06.17-.09.41-.16.63-.36,2.34-2.21,3.09-3.69,2.68-4.56-.51-1.08-2.81-.66-6.58-.59-2.85.05-6.11-.11-9.72-.65,2.26.05,4.9-.05,7.83-.46,2.64-.37,4.97-.91,6.97-1.5,1.41-.01,1.96-5.45,1.18-6.16-.28-.34-.72-.77-1.15-1.25-.91-1-.25-2.6,1.11-2.71,1.66-.12,3.16-.68,1.93-2.67.08-.52-8.66-4.12-9.63-4.7-.23-.14-.44-.31-.6-.53-.76-1.07-1.62-3.53-1.94-4.07.15-.72-7.23-3.73-8.46-4.38-.11-.06-.23-.11-.36-.14-2.19-.57-11.75-3.42-13.27-3.01-.98-.01-1.13,1.8-2.28,1.04l-3.41-2.19c-.02-.28-6.48-1.04-6.8-1.14-.33-.2-4.21,1.03-5.27,1.28-.21.05-.4.13-.58.25-1.17.86-3.31,3.61-4.04,4.84-.01.02-.04.13-.11.24-.19.31-.47.46-.51.48-.22.14-.44,1-.4,4.32.11,1.26.11,2.73-.15,4.35-.07.42-.15.83-.24,1.22-.48-.59-1.05-1.46-1.37-2.61-.68-2.38.07-4.63-.46-4.8-.1-.03-.4.19-.99.64-.41.3-.75.57-1,.77-2.96,2.46-5.93,4.91-8.89,7.36-.1.08-.19.16-.27.26l-5.54,6.65c-.06.1-.12.19-.18.28-1.57,2.32-3.18,4.57-4.84,6.73.27-2.36.54-4.73.81-7.09.02-.17.04-.38.1-.6.05-.17.1-.32.16-.45,2.48-5.2,4.95-10.39,7.43-15.58.36-.36.73-.77,1.11-1.22.2-.25.38-.49.56-.73,3.28-3.11,6.56-6.22,9.84-9.33.25-.39,14.44-6.42,14.78-6.7.15-.07.31-.11.48-.13l15.05-1.62c.38-.16,14.31,2.14,14.72,2.1,7.62-.82,13.75,7.3,19.91,11.82.24.18.34.26.4.3,5.25,3.96,7.86,8.17,9.26,11.25.05.4,4.8,17.06,5.21,19.04.02.1.03.19.03.3v9.43c0,.16-.02.31-.07.46l-3.2,10.58c-.04.13-.1.26-.17.37-.29.2-5.69,9.42-5.99,9.6-.28.11-6.07,6.85-6.64,7.29-.02.02-.04.03-.06.04-.5.4-6.44,5.1-7.52,5.96-.12.09-.23.16-.37.21-1.31.56-3.39,1.4-5.55,2.3-1.68.7-1.12,3.21.69,3.14.79-.04,1.46-.08,1.9-.14.25-.03.49-.14.7-.29,1.57-1.11,13.55-8.83,13.75-9.17,13.91-15.62,12.23-12.79,18.7-32.47.05-.15.08-.31.08-.47.6-20.27.66-15.9-8.14-33.46ZM113.94,63.3c1.22-.33,1.85-.5,2.55-.55.87-.08,1.89-.15,3,.33.49.21,1.17.5,1.56,1.22.33.62.46,1.59,0,2-.35.31-.92.2-1.34.11-2.19-.47-3.28-.7-4.22-1-2.75-.87-4.32-.74-4.33-1.11,0-.25.93-.5,2.78-1ZM88.38,56.49c.22-.68.66-2.01,1.78-2.44.54-.22,1.39-.28,6.22,3,2.54,1.72,3,2.2,2.89,2.55-.17.52-1.57.62-3.78.78-1.79.13-2.27.01-2.67.44-.33.38-.29.81-.22,3.23.06,2.12.04,2.37-.11,2.44-.53.23-2.13-1.9-3.11-4-.77-1.65-1.75-3.74-1-6Z"/><path class="cls-6" d="M142.53,74.57c-.14.45-.62,1.93-2,2.45-.54.2-1.6.39-2-.12-.48-.6.57-1.51.89-3.55.34-2.18-.49-3.37.11-3.78.58-.38,1.87.34,2.56,1.22,1.17,1.51.54,3.46.44,3.78Z"/><path class="cls-7" d="M109.32,130c-.99.63-2.25-.27-1.97-1.41,3.36-13.61,18.72-21.27,30.47-27.17-12.7,2.5-24.13,12.09-31.74,22.71-.71.98-2.25.58-2.36-.62-2.09-22.45,25.93-30.96,44.93-31.78.89-.04,1.55.79,1.32,1.65-5.86,21.42-24.12,25.94-40.65,36.62Z"/><path class="cls-10" d="M103.81,120.52c-.28-.07-.01-2.44.59-4.66.26-.98,1.37-4.8,4.89-9.11,1.12-1.37,4.64-5.43,10.44-8.24,2.61-1.26,5.22-2.01,10.45-3.51,1.1-.31,2.17-.59,3.42-.83,1.33-.26,2.01-.32,3.36-.53,2.26-.35,3-.58,4.67-.89,3.86-.71,7.42-.82,7.44-.67.02.15-3.25.41-8.11,1.67-2.94.76-2.95.98-7.94,2.5-5.41,1.64-5.81,1.51-8.11,2.44-3.12,1.27-5.25,2.69-7.28,4.06-4.04,2.72-7.23,4.87-9.78,8.67-3.08,4.59-3.64,9.2-4.02,9.1Z"/><path class="cls-3" d="M60.07,74.43c2.22-3.42,4.36-6.16,6.11-8.22,1.27-1.5,3.12-3.67,5.89-6.22,1.33-1.23,2.67-2.1,5.56-4.56,1.08-.92,1.97-1.7,2.56-2.22"/><path class="cls-3" d="M101.03,30.78c.23-.97,7.67-.02,11.08.42,1.95.25,3.64.52,4.95.74,2.89.5,5.09.88,7.63,1.59,5.09,1.42,8.72,3.37,11.75,5,2.61,1.4,3.77,2.24,4.55,2.85,1.99,1.56,2.72,2.6,4.45,4.39,4.03,4.15,7.29,5.9,7.15,6.1-.16.24-4.78-1.88-9.24-5.84-2.56-2.28-2.74-3.09-5.08-4.67-1.6-1.08-2.98-1.68-7.33-3.25-5.3-1.91-7.94-2.86-9.03-3.1-7.78-1.71-12,.42-18.64-2.65-.68-.31-2.37-1.11-2.25-1.58Z"/><polygon class="cls-8" points="190.09 67.2 211.86 67.2 190.09 93.18 190.09 104.09 228.75 104.09 228.75 93.18 206.57 93.18 228.75 67.2 228.75 57.87 190.09 57.87 190.09 67.2"/><path class="cls-8" d="M255.31,59.18c-11.41,0-20.66,9.25-20.66,20.67s9.25,20.66,20.66,20.66,20.67-9.25,20.67-20.66-9.25-20.67-20.67-20.67ZM255.31,90.57c-5.92,0-10.72-4.8-10.72-10.72s4.8-10.73,10.72-10.73,10.72,4.81,10.72,10.73-4.8,10.72-10.72,10.72Z"/><path class="cls-8" d="M304.08,59.18c-11.41,0-20.66,9.25-20.66,20.67s9.25,20.66,20.66,20.66,20.67-9.25,20.67-20.66-9.25-20.67-20.67-20.67ZM304.08,90.57c-5.92,0-10.72-4.8-10.72-10.72s4.8-10.73,10.72-10.73,10.72,4.81,10.72,10.73-4.8,10.72-10.72,10.72Z"/><path class="cls-4" d="M513.04,14.45l-.04.07c0-.07,0-.13.02-.19,0,.04,0,.08.02.12Z"/><path class="cls-4" d="M513.91,19.18l-.14.2c-.72-1-1.26-2.11-1.67-3.28l.91-1.58c-.04.64,0,1.35.13,2.11.03.17.31,1.73.78,2.54Z"/><path class="cls-1" d="M395.02,63.67c-.59,4.1-2.04,8.01-3.49,11.89-2.43,6.52-5.02,13.3-10.14,18.01-3.7,3.41-8.43,5.45-12.71,8.11-3.29,2.04-6.47,4.69-8.26,8.04.74-3.35,1.79-8.94,4.77-15.05,1.03-2.1,3.99-8.06,9.67-13.67,1.34-1.31,2.04-1.84,5.9-5.41,3.5-3.23,6.3-5.93,8.15-7.72-1.83-.97-4.01.37-5.57,1.73-3.13,2.72-5.96,5.75-8.79,8.78-3.31,3.54-4.7,4.21-6.86,7.34-.56.82-.7,1.09-2.5,4.28-3.42,6.08-5.55,9.72-7.11,14.45-.19.59-.5,1.55-.59,2.76,0,.06-.02.13-.02.2h0s-1,1.71-1,1.71l-.27.47c-.31,1.78-.79,3.54-1.44,5.23-.1.25-.22.53-.46.67-.37.23-.85.04-1.22-.2-1.88-1.21-2.86-3.45-3.25-5.65-.39-2.2-.31-4.46-.61-6.68-.55-4.12-2.41-7.93-3.96-11.8-2.11-5.23-3.69-10.7-6.51-15.58-1.38-2.38-3.04-4.59-4.34-7.02-1.3-2.42-2.24-5.14-2.02-7.88,10.46.26,20.35,7.78,23.38,17.8.92,3.04,1.24,6.18,1.32,9.35.02-.22.04-.43.05-.65.19-3.33-.08-6.76.95-9.93.97-3,3.01-5.5,5.01-7.93,2.9-3.51,5.85-7.08,9.63-9.62,2.09-1.4,4.4-2.47,6.73-3.41,4.68-1.89,9.53-3.35,14.48-4.34.32-.07.67-.12.93.07.29.21.33.61.34.96.16,3.57.31,7.16-.19,10.69Z"/><path class="cls-2" d="M394.42,63.5c-.63,4.18-2.09,8.14-3.56,12.08-1.35,3.61-2.72,7.23-4.6,10.6s-4.43,6.53-7.69,8.86-6.84,3.99-10.2,6.09-6.53,4.74-8.48,8.26l1.14.48c1.43-6.53,3.28-12.8,6.68-18.6,1.98-3.38,4.35-6.53,7.09-9.33,1.62-1.65,3.39-3.15,5.1-4.71,3.19-2.93,6.34-5.91,9.46-8.92.26-.26.24-.82-.13-.98-3.74-1.68-7.34,2.64-9.7,4.96-3.05,3-5.88,6.2-8.97,9.17-1.72,1.65-3.21,3.47-4.39,5.54-2,3.49-4.03,6.99-5.85,10.58-1.49,2.94-3.21,6.3-3.45,9.63-.02.33.23-.2-.09.16-.16.19-.28.48-.41.69-.2.35-.45.7-.62,1.06-.36.76-.42,1.69-.63,2.51-.13.51-.28,1.02-.44,1.52-.21.67-.32,1.95-1.29,1.59-.83-.3-1.58-1.51-1.96-2.23-.51-.95-.81-1.99-1-3.05-.44-2.42-.3-4.91-.71-7.34-.75-4.5-2.91-8.62-4.53-12.84-1.81-4.73-3.35-9.62-5.91-14.03s-6.6-8.94-6.27-14.58l-.62.62c6.3.21,12.31,2.98,16.75,7.43,2.19,2.19,3.98,4.77,5.2,7.62,1.55,3.62,2.02,7.57,2.13,11.48.02.81,1.18.79,1.25,0,.38-4.31-.19-8.65,1.92-12.62,1.92-3.61,4.91-6.84,7.66-9.84s6.01-5.61,9.83-7.39c4.1-1.92,8.46-3.36,12.83-4.48,1.15-.3,2.49-.79,3.69-.85.41-.02.35-.18.7.12s.26.72.28,1.19c.02.57.05,1.14.06,1.71.09,2.68.06,5.35-.3,8.01-.11.79,1.15.79,1.25,0,.35-2.66.38-5.33.3-8.01-.04-1.33.44-4.27-1.52-4.39-1.01-.06-2.21.4-3.19.63-1.31.31-2.6.64-3.89,1.01-2.42.7-4.82,1.51-7.17,2.42-4.32,1.69-8.3,3.78-11.67,7.01s-6.33,6.7-8.83,10.41c-1.43,2.13-2.41,4.42-2.77,6.97-.38,2.69-.2,5.41-.43,8.1h1.25c-.12-4.05-.62-8.12-2.2-11.88-1.28-3.03-3.17-5.78-5.49-8.1-4.67-4.68-11.01-7.57-17.63-7.79-.35-.01-.61.3-.62.62-.27,4.62,2.2,8.58,4.62,12.3,2.67,4.1,4.56,8.42,6.25,12.99s3.71,8.75,5.1,13.26c.72,2.32.98,4.65,1.13,7.07.13,2.1.3,4.22,1.17,6.17.62,1.4,1.78,3.16,3.33,3.64,1.77.54,2.2-1.59,2.59-2.84.46-1.49.58-3.04,1.37-4.38.22-.37.53-.76.68-1.16.28-.71.22-1.56.43-2.31.97-3.6,2.78-6.99,4.56-10.24,1.61-2.94,3.16-5.98,4.99-8.79,2.09-3.2,5.2-5.65,7.79-8.42,1.83-1.96,3.68-3.91,5.62-5.77,1.67-1.59,4.56-4.98,7.19-3.8l-.13-.98c-4.57,4.42-9.38,8.58-13.93,13.01-4.93,4.8-8.76,10.77-11.32,17.14-1.56,3.88-2.51,7.91-3.4,11.97-.15.67.79,1.13,1.14.48,3.97-7.19,12.33-9.55,18.59-14.16,6.17-4.55,9.3-11.45,11.94-18.42,1.68-4.44,3.42-8.9,4.14-13.62.12-.79-1.08-1.13-1.21-.33Z"/><path class="cls-5" d="M436.21,77.43c-1.36-4.19-3.03-9.32-8.23-12.45-6.47-3.89-13.45-1.7-15.33-1.11-2.08.66-6.58,2.14-9.78,6.67-3.45,4.88-3.19,10.17-2.89,12.44,1.22,9.15,9.04,13.6,9.78,14,6.96,3.81,13.69,1.8,16,1.11.42-.12,8.84-2.69,8.67-6-.12-2.19-4.01-4.19-7.34-4.66-5.69-.82-8.31,3.01-12.22,1.33-2.62-1.13-4.42-4.14-3.78-5.33.58-1.07,3.01-.55,7.34,0,9.42,1.19,16.67,2.1,18.44-.67.71-1.11.25-2.51-.66-5.33ZM428.3,73.87c-1.13,3.48-13.84,3.86-15.11.67-.66-1.64,1.74-4.1,3.11-5.11.63-.47,3.58-2.53,7.11-1.34,2.91.99,5.49,3.94,4.89,5.78Z"/><path class="cls-5" d="M450.77,96.52v-29.74c0-.67.52-1.23,1.19-1.28l8.1-.56c.74-.05,1.37.54,1.37,1.28,0,1.15,1.39,1.72,2.2.9l1.94-1.96c.2-.2.47-.34.75-.37l6.51-.82c.7-.09,1.35.41,1.43,1.11l.82,6.53c.08.62-.31,1.21-.91,1.39l-8.53,2.52c-.13.04-.26.1-.38.18l-2.84,2.01c-.34.24-.54.63-.54,1.05v17.16c0,.28-.09.56-.26.78l-.46.6c-.24.32-.62.5-1.02.5h-8.08c-.71,0-1.28-.57-1.28-1.28Z"/><path class="cls-5" d="M485.2,93.19c.11,3.26,7.16,5.06,8.22,5.33,6.34,1.62,11.6-.48,13.11-1.11,3.06-1.27,6.26-2.6,7.78-6,1.26-2.82,1.32-7-.89-9.78-3.99-5.03-12.28-1.6-15.56-6.89-.69-1.11-1.37-2.95-.67-3.78,1.42-1.68,6.73,2.92,12.44,1.11,2.45-.78,5.07-2.76,4.89-4.44-.29-2.65-7.47-3.79-10.22-4.22-5.48-.87-9.48-1.5-13.33.89-3.84,2.37-7.06,7.44-5.78,10.89.69,1.86,3.35,3.17,8.67,5.78,4.69,2.3,6.49,2.62,7.56,4.67,1.24,2.37.88,5.89-.67,6.67-2.23,1.12-5.04-4.44-9.78-4-2.92.27-5.85,2.75-5.78,4.89Z"/><path class="cls-5" d="M562.01,77.43c-1.36-4.19-3.03-9.32-8.23-12.45-6.47-3.89-13.45-1.7-15.33-1.11-2.08.66-6.58,2.14-9.78,6.67-3.45,4.88-3.19,10.17-2.89,12.44,1.22,9.15,9.04,13.6,9.78,14,6.96,3.81,13.69,1.8,16,1.11.42-.12,8.84-2.69,8.67-6-.12-2.19-4.01-4.19-7.34-4.66-5.69-.82-8.31,3.01-12.22,1.33-2.62-1.13-4.42-4.14-3.78-5.33.58-1.07,3.01-.55,7.34,0,9.42,1.19,16.67,2.1,18.44-.67.71-1.11.25-2.51-.66-5.33ZM554.1,73.87c-1.13,3.48-13.84,3.86-15.11.67-.66-1.64,1.74-4.1,3.11-5.11.63-.47,3.58-2.53,7.11-1.34,2.91.99,5.49,3.94,4.89,5.78Z"/></svg>